<svg width="360" height="112" viewBox="0 0 360 112" fill="none" xmlns="http://www.w3.org/2000/svg">
  <defs>
    <linearGradient id="sbMark" x1="20" y1="20" x2="126" y2="92" gradientUnits="userSpaceOnUse">
      <stop stop-color="#1E3A8A"/>
      <stop offset="1" stop-color="#0F766E"/>
    </linearGradient>
  </defs>
  <rect x="14" y="12" width="120" height="88" rx="28" fill="#F8FAFC"/>
  <path d="M74 26L28 46L74 66L120 46L74 26Z" fill="url(#sbMark)"/>
  <path d="M42 52V66C42 72 56 78 74 78C92 78 106 72 106 66V52" stroke="#0F172A" stroke-width="4.5" stroke-linecap="round" stroke-linejoin="round"/>
  <path d="M116 48V69" stroke="#0F172A" stroke-width="4.5" stroke-linecap="round"/>
  <circle cx="116" cy="73" r="5" fill="#F59E0B"/>
  <path d="M53 58.4C54.7 61.7 58 63.5 61.9 63.5C66 63.5 68.3 61.8 68.3 59.3C68.3 56.9 66.2 55.9 61.7 55L59.3 54.5C53.9 53.4 50.9 50.9 50.9 46.2C50.9 40.7 55.5 37 62.3 37C69.1 37 73.5 40.4 74.2 45.9H67.8C67.2 43.4 65.2 42 62.2 42C59.3 42 57.4 43.4 57.4 45.5C57.4 47.5 59.2 48.6 63.1 49.3L65.5 49.8C71.4 51 74.8 53.5 74.8 58.4C74.8 64.3 69.9 68.4 61.9 68.4C54.5 68.4 49.8 64.8 48.9 58.4H53Z" fill="white"/>
  <path d="M82.3 37H94.5C100.8 37 104.8 40.2 104.8 45.4C104.8 48.6 102.9 50.9 99.5 52.1C103.6 53.1 106 55.7 106 59.6C106 65.2 101.6 68.4 94.4 68.4H82.3V37ZM88.6 49.8H93.5C96.9 49.8 98.7 48.5 98.7 46.1C98.7 43.8 96.9 42.4 93.7 42.4H88.6V49.8ZM88.6 63H94C97.8 63 99.6 61.7 99.6 59.1C99.6 56.4 97.6 55 93.9 55H88.6V63Z" fill="white"/>
  <path d="M154 72V40H175.7C182.2 40 186.5 43.2 186.5 48.7C186.5 52.1 184.4 54.6 180.7 55.9C185.1 56.9 187.8 59.9 187.8 64.2C187.8 69.9 183.2 72 176.7 72H154ZM161.4 53.1H173.3C176.8 53.1 178.9 51.7 178.9 49.1C178.9 46.4 176.9 45.2 173.3 45.2H161.4V53.1ZM161.4 66.8H174.3C178.1 66.8 180.1 65.4 180.1 62.5C180.1 59.6 177.9 58.2 173.9 58.2H161.4V66.8Z" fill="#0F172A"/>
  <path d="M194.4 72V40H201.8V53.1H217.1V40H224.5V72H217.1V59.2H201.8V72H194.4Z" fill="#0F172A"/>
  <path d="M232.5 72V40H255.1V45.8H239.9V53H254.3V58.6H239.9V66.2H255.1V72H232.5Z" fill="#0F172A"/>
  <path d="M262.2 72V40H269.6V66H283.9V72H262.2Z" fill="#0F172A"/>
  <path d="M289.4 72V40H301.7C311.9 40 318 45.8 318 56C318 66.3 311.8 72 301.4 72H289.4ZM296.8 66H301.1C307.1 66 310.4 62.6 310.4 56C310.4 49.5 307.1 46 301.1 46H296.8V66Z" fill="#0F172A"/>
  <path d="M324.1 72V40H331.5V72H324.1Z" fill="#0F172A"/>
</svg>
