<svg version="1.1" id="Layer_1" xmlns="http://www.w3.org/2000/svg" xmlns:xlink="http://www.w3.org/1999/xlink" x="0px" y="0px"
	 width="100%" viewBox="0 0 800 533" enable-background="new 0 0 800 533" xml:space="preserve">
0B0D14" opacity="1.000000" stroke="none" s*d=".*?z"/>
#0B0D14" opacity="1.000000" stroke="none" 
	d="
M745.000000,534.000000 
	C496.666718,534.000000 248.833420,534.000000 1.000100,534.000000 
	C1.000067,356.333405 1.000067,178.666824 1.000033,1.000171 
	C267.666534,1.000114 534.333069,1.000114 800.999756,1.000057 
	C800.999817,178.666504 800.999817,356.333008 800.999878,533.999756 
	C782.500000,534.000000 764.000000,534.000000 745.000000,534.000000 
M169.533264,274.664062 
	C165.704315,275.684540 166.512680,278.278107 167.531097,281.715576 
	C166.880737,284.782288 166.230377,287.848999 165.316833,291.716705 
	C165.268021,292.838257 165.219208,293.959808 164.949722,295.765900 
	C164.708069,303.759094 164.903549,304.011475 171.468033,304.179535 
	C181.348907,304.432556 181.346664,304.432709 180.495514,294.397369 
	C180.439575,293.737915 180.456879,293.072205 180.916672,291.964386 
	C182.623688,292.297577 184.330719,292.630737 186.713852,293.277374 
	C189.716446,294.178680 192.669617,295.327850 195.730255,295.937958 
	C208.442688,298.472137 221.273514,299.653534 234.188568,297.923035 
	C243.727615,296.644867 253.158981,294.926819 261.447632,289.383453 
	C264.468170,287.363373 266.316803,285.252350 266.150482,281.381866 
	C265.901245,275.582153 266.065247,269.764740 266.371185,263.217743 
	C266.558533,260.122650 266.745880,257.027557 267.512970,253.484100 
	C276.127289,250.450226 284.765594,247.481247 293.331573,244.316589 
	C294.709137,243.807663 295.764191,242.425720 296.968323,241.447327 
	C295.698425,240.371017 294.599701,238.801590 293.132935,238.292343 
	C270.828003,230.548248 248.519806,222.806076 226.087158,215.444977 
	C222.507874,214.270493 217.983276,213.864014 214.468506,214.952332 
	C193.361389,221.487854 172.411377,228.532974 151.437256,235.493286 
	C148.449066,236.484924 145.515732,237.756744 142.742538,239.244659 
	C140.559616,240.415863 140.443680,242.415588 142.907730,243.256943 
	C151.847870,246.309601 160.881821,249.087494 170.013809,252.908066 
	C170.104752,258.942474 170.195709,264.976898 170.089996,271.848907 
	C170.112228,272.708679 170.134460,273.568420 169.533264,274.664062 
M580.847290,288.101379 
	C574.859253,294.319763 576.227600,301.262970 584.348389,303.953888 
	C592.040344,306.502747 599.802307,306.086731 607.085205,302.217804 
	C611.652954,299.791168 613.759277,295.009949 612.762512,290.003601 
	C611.789612,285.116943 608.196045,283.307831 603.766418,282.793365 
	C600.472412,282.410767 597.085327,282.651672 593.845947,282.046234 
	C592.002319,281.701721 590.372192,280.214996 588.645935,279.242584 
	C590.353821,278.440216 592.033508,277.021790 593.774475,276.942139 
	C601.295166,276.598114 607.213501,273.502808 608.409790,268.005798 
	C609.125549,264.717133 608.541138,261.145538 608.541138,257.456665 
	C609.671143,257.235779 611.008301,257.333008 611.801025,256.722900 
	C612.669067,256.054932 613.545227,254.693329 613.467590,253.708984 
	C613.397217,252.816879 612.086487,251.344421 611.256836,251.297729 
	C604.635437,250.925171 597.953430,250.266388 591.376892,250.788574 
	C582.280457,251.510803 577.107300,259.526123 579.846252,267.939636 
	C580.631104,270.350372 582.457031,272.422211 583.976807,274.932281 
	C580.679077,277.558228 580.167603,280.990234 582.076233,284.984741 
	C582.369385,285.598419 581.660889,286.690735 580.847290,288.101379 
M450.138397,276.465546 
	C450.138397,280.219238 450.138397,283.972900 450.138397,287.955017 
	C457.714233,287.955017 464.505829,288.250854 471.259216,287.869568 
	C477.664551,287.507935 483.509491,285.390442 485.913757,278.632690 
	C488.265564,272.022430 486.123291,266.596313 480.651398,262.368469 
	C480.430725,262.197968 480.410583,261.767914 480.214600,261.234375 
	C480.575836,260.671570 480.971619,259.958801 481.457001,259.313416 
	C488.389282,250.095901 484.971863,239.559021 473.736877,237.859055 
	C466.171631,236.714371 458.292969,237.641022 450.149078,237.641022 
	C450.149078,250.295273 450.149078,262.886139 450.138397,276.465546 
M341.809753,246.625458 
	C342.005890,244.160141 342.202026,241.694824 342.421600,238.934631 
	C334.984222,236.425858 327.706390,235.552567 320.319641,238.120499 
	C314.910187,240.001022 311.833618,244.004227 311.463501,249.654358 
	C311.091675,255.330063 312.898743,260.246826 318.381226,262.932465 
	C322.098450,264.753357 325.990662,266.214020 329.779449,267.892639 
	C332.985809,269.313202 335.858215,271.176025 334.866333,275.319977 
	C333.918121,279.281525 330.626373,280.396393 327.126282,280.112549 
	C322.091339,279.704315 317.099518,278.764771 312.091522,278.052307 
	C311.134644,286.763855 311.372253,287.354706 320.402649,288.054840 
	C325.126709,288.421082 330.057892,288.242828 334.679047,287.275818 
	C340.566406,286.043884 344.068390,281.754974 344.904510,275.745575 
	C345.759521,269.600220 343.874481,264.488647 338.073395,261.533875 
	C334.238831,259.580719 330.255890,257.906372 326.283783,256.239716 
	C323.243805,254.964172 320.435394,252.775192 321.774536,249.646667 
	C322.677979,247.536102 326.104980,245.410583 328.510559,245.280624 
	C332.699738,245.054306 336.971893,246.363678 341.809753,246.625458 
M357.465057,287.900177 
	C359.902344,288.260468 361.143585,287.578796 360.998505,284.746368 
	C360.781342,280.505707 360.942078,276.245667 360.942078,270.445984 
	C363.195587,272.400330 364.472046,273.231018 365.386414,274.356079 
	C367.485931,276.939423 369.423645,279.655396 371.400787,282.336884 
	C376.048004,288.639404 377.519165,289.143036 386.018433,287.131134 
	C381.167664,280.739136 376.374878,274.423523 371.489777,267.986298 
	C376.026550,262.433350 380.330353,257.165527 384.684113,251.836563 
	C377.157867,249.743561 372.270813,252.185577 368.641022,258.203217 
	C366.865875,261.146118 364.241516,263.576782 362.001556,266.239319 
	C361.610962,266.044739 361.220398,265.850159 360.829834,265.655579 
	C360.829834,255.270279 360.829834,244.884979 360.829834,234.242188 
	C357.532227,234.536469 354.773987,234.782623 351.859131,235.042755 
	C351.859131,252.705353 351.859131,270.127411 351.859131,287.899506 
	C353.607971,287.899506 355.088043,287.899506 357.465057,287.900177 
M570.966797,255.505280 
	C570.966797,248.397552 570.966797,241.289810 570.966797,233.709518 
	C568.283020,233.943329 566.207153,234.124191 563.719849,234.340881 
	C563.719849,237.659058 563.719788,240.621414 563.719788,243.583786 
	C563.719788,246.423355 563.719849,249.262924 563.719849,252.645142 
	C560.997620,251.846069 559.588257,251.368973 558.147827,251.019806 
	C548.760681,248.744278 541.026733,252.913086 538.326416,262.172668 
	C537.372681,265.443115 537.095337,269.091888 537.355774,272.503357 
	C538.382812,285.955994 548.486389,292.000244 560.944275,287.044891 
	C562.211487,286.540833 563.971436,287.260773 565.500366,287.433167 
	C567.201233,287.624939 568.899353,287.840149 570.962830,288.089081 
	C570.962830,277.107544 570.962830,266.805389 570.966797,255.505280 
M639.184387,288.713013 
	C640.820374,288.436432 642.472534,288.232269 644.089111,287.869110 
	C648.164734,286.953522 649.582031,284.624939 647.987732,280.906677 
	C643.048035,281.387329 638.286682,282.438599 633.607849,282.150482 
	C628.292114,281.823090 625.232788,277.698792 625.143250,271.629150 
	C633.465820,271.629150 641.804321,271.629150 650.541992,271.629150 
	C650.313354,268.470825 650.254944,266.161072 649.961060,263.881622 
	C649.007751,256.488007 644.694214,251.855026 637.813599,250.697037 
	C629.777222,249.344543 622.924988,252.397018 619.589294,258.815430 
	C611.355286,274.658966 620.498108,289.325714 639.184387,288.713013 
M409.383698,246.541367 
	C409.372772,257.005585 409.284760,267.470459 409.373901,277.933807 
	C409.453705,287.302399 413.767517,290.256622 424.090363,286.864075 
	C422.604858,284.364716 421.096893,282.176178 419.973145,279.805511 
	C419.304596,278.395142 418.965302,276.701172 418.949310,275.129883 
	C418.851227,265.496826 418.886963,255.862411 418.880127,246.228455 
	C418.877350,242.318146 418.879669,238.407837 418.879669,234.254227 
	C415.404266,234.550598 412.640198,234.786301 409.386383,235.063782 
	C409.386383,238.672729 409.386383,242.115936 409.383698,246.541367 
M433.339752,287.296570 
	C436.519592,287.700470 439.699463,288.104370 443.603241,288.600250 
	C443.122711,285.335693 443.450562,281.662018 442.354919,281.172119 
	C438.270538,279.345917 439.111420,276.167450 439.101257,273.142700 
	C439.058350,260.391052 439.083099,247.639175 439.083099,234.445084 
	C435.757935,234.656097 432.882538,234.838577 429.815979,235.033188 
	C429.815979,250.203522 429.688141,264.979126 429.944794,279.748077 
	C429.986450,282.144745 431.732483,284.511810 433.339752,287.296570 
M501.262848,275.493805 
	C501.275909,272.663696 501.180206,269.828003 501.324921,267.004639 
	C501.617188,261.301331 505.599274,257.476227 511.302704,257.291870 
	C512.746033,257.245239 514.192139,257.284912 515.522217,257.284912 
	C517.423767,250.965500 516.509399,249.733231 510.377014,250.537277 
	C508.322418,250.806671 506.430786,252.182251 504.372772,252.609558 
	C502.936890,252.907700 501.337372,252.509323 499.824158,252.317825 
	C498.291412,252.123856 496.696198,251.419891 495.287231,251.710327 
	C494.662781,251.839050 494.105133,253.856705 494.075195,255.031143 
	C493.952209,259.855469 494.049774,264.685272 494.054810,269.513062 
	C494.061157,275.598328 494.056366,281.683624 494.056366,287.813049 
	C496.848511,287.813049 498.897766,287.813049 501.266541,287.813049 
	C501.266541,283.762970 501.266541,280.118713 501.262848,275.493805 
M400.358337,254.935486 
	C400.198517,253.718857 400.038727,252.502228 399.926270,251.646179 
	C396.679352,251.646179 393.947845,251.646179 391.410522,251.646179 
	C391.410522,263.965393 391.410522,275.854431 391.410522,287.574402 
	C394.568756,287.574402 397.317596,287.574402 400.353821,287.574402 
	C400.353821,276.788666 400.353821,266.319427 400.358337,254.935486 
M522.275391,253.093933 
	C522.275391,264.542969 522.275391,275.992004 522.275391,287.305084 
	C528.928955,289.121918 529.430115,288.821289 529.482544,282.685303 
	C529.556519,274.033295 529.525452,265.380127 529.499817,256.727600 
	C529.494690,254.987625 529.313293,253.248169 529.170715,250.771866 
	C526.473572,251.373489 524.487793,251.816437 522.275391,253.093933 
M398.415100,244.770477 
	C402.148254,241.049789 401.829742,236.655350 397.514130,235.794571 
	C395.607849,235.414337 392.887024,236.185364 391.437439,237.459412 
	C390.438812,238.337112 390.193848,241.972076 391.010132,242.623856 
	C392.769806,244.028946 395.430573,244.305588 398.415100,244.770477 
M524.924805,235.890396 
	C523.724854,237.629074 522.089661,239.240997 521.529053,241.165894 
	C521.289246,241.989197 523.445679,244.548431 524.239502,244.433197 
	C526.324341,244.130569 529.429138,243.255264 530.016052,241.772400 
	C531.346069,238.411987 529.302307,236.158798 524.924805,235.890396 
z"/>
<path fill="#30384C" opacity="1.000000" stroke="none" 
	d="
M169.880386,251.969040 
	C160.881821,249.087494 151.847870,246.309601 142.907730,243.256943 
	C140.443680,242.415588 140.559616,240.415863 142.742538,239.244659 
	C145.515732,237.756744 148.449066,236.484924 151.437256,235.493286 
	C172.411377,228.532974 193.361389,221.487854 214.468506,214.952332 
	C217.983276,213.864014 222.507874,214.270493 226.087158,215.444977 
	C248.519806,222.806076 270.828003,230.548248 293.132935,238.292343 
	C294.599701,238.801590 295.698425,240.371017 296.968323,241.447327 
	C295.764191,242.425720 294.709137,243.807663 293.331573,244.316589 
	C284.765594,247.481247 276.127289,250.450226 266.832520,253.724243 
	C251.896255,258.922394 237.672348,263.976410 223.352402,268.741882 
	C221.026062,269.516083 218.048676,269.710297 215.760513,268.970886 
	C208.179123,266.521118 200.779099,263.511658 193.301971,260.737244 
	C188.121460,258.814972 182.928497,256.926270 176.516785,254.573303 
	C182.213867,252.781509 186.621796,251.377609 191.040787,250.009506 
	C197.347855,248.056839 203.663025,246.130432 210.306152,243.981537 
	C214.007202,242.201324 217.376831,240.632355 220.721283,238.697632 
	C218.067123,237.975449 215.229736,236.796188 212.844025,237.400406 
	C200.361328,240.561752 187.957291,244.055466 175.619308,247.745880 
	C173.476944,248.386688 171.781982,250.523315 169.880386,251.969040 
z"/>
<path fill="#30384C" opacity="1.000000" stroke="none" 
	d="
M266.053528,263.954834 
	C266.065247,269.764740 265.901245,275.582153 266.150482,281.381866 
	C266.316803,285.252350 264.468170,287.363373 261.447632,289.383453 
	C253.158981,294.926819 243.727615,296.644867 234.188568,297.923035 
	C221.273514,299.653534 208.442688,298.472137 195.730255,295.937958 
	C192.669617,295.327850 189.716446,294.178680 186.361511,292.681152 
	C185.214508,285.526459 184.431671,278.966583 183.621292,272.410095 
	C183.020065,267.545898 184.585037,266.338135 189.140335,268.061310 
	C195.920425,270.626007 202.668182,273.299744 209.546539,275.573669 
	C214.874634,277.335052 220.352005,278.848785 226.035904,276.785614 
	C232.401245,274.475067 238.725769,272.030853 245.172318,269.971100 
	C252.069351,267.767365 259.087982,265.944122 266.053528,263.954834 
z"/>
<path fill="#4571B4" opacity="1.000000" stroke="none" 
	d="
M581.131470,287.831543 
	C581.660889,286.690735 582.369385,285.598419 582.076233,284.984741 
	C580.167603,280.990234 580.679077,277.558228 583.976807,274.932281 
	C582.457031,272.422211 580.631104,270.350372 579.846252,267.939636 
	C577.107300,259.526123 582.280457,251.510803 591.376892,250.788574 
	C597.953430,250.266388 604.635437,250.925171 611.256836,251.297729 
	C612.086487,251.344421 613.397217,252.816879 613.467590,253.708984 
	C613.545227,254.693329 612.669067,256.054932 611.801025,256.722900 
	C611.008301,257.333008 609.671143,257.235779 608.541138,257.456665 
	C608.541138,261.145538 609.125549,264.717133 608.409790,268.005798 
	C607.213501,273.502808 601.295166,276.598114 593.774475,276.942139 
	C592.033508,277.021790 590.353821,278.440216 588.645935,279.242584 
	C590.372192,280.214996 592.002319,281.701721 593.845947,282.046234 
	C597.085327,282.651672 600.472412,282.410767 603.766418,282.793365 
	C608.196045,283.307831 611.789612,285.116943 612.762512,290.003601 
	C613.759277,295.009949 611.652954,299.791168 607.085205,302.217804 
	C599.802307,306.086731 592.040344,306.502747 584.348389,303.953888 
	C576.227600,301.262970 574.859253,294.319763 581.131470,287.831543 
M594.134277,288.597290 
	C592.018799,288.776642 589.580933,288.369598 587.880737,289.304321 
	C586.260315,290.195251 584.909607,292.354065 584.419983,294.213470 
	C584.154663,295.220947 585.649231,297.466766 586.839172,297.950348 
	C592.434875,300.224426 598.215027,300.172852 603.493347,297.118317 
	C604.799377,296.362610 605.918579,293.645660 605.585999,292.178833 
	C605.281677,290.836426 603.038818,289.497314 601.396301,289.006348 
	C599.400513,288.409790 597.138550,288.703339 594.134277,288.597290 
M593.654480,270.973877 
	C597.833740,270.956665 601.294434,269.839966 602.051575,265.055023 
	C602.777466,260.468353 600.422424,257.141815 596.023438,256.306763 
	C591.385681,255.426376 587.661499,257.718445 586.543091,262.141388 
	C585.426208,266.558441 587.375366,269.270020 593.654480,270.973877 
z"/>
<path fill="#4571B4" opacity="1.000000" stroke="none" 
	d="
M450.143738,275.971283 
	C450.149078,262.886139 450.149078,250.295273 450.149078,237.641022 
	C458.292969,237.641022 466.171631,236.714371 473.736877,237.859055 
	C484.971863,239.559021 488.389282,250.095901 481.457001,259.313416 
	C480.971619,259.958801 480.575836,260.671570 480.214600,261.234375 
	C480.410583,261.767914 480.430725,262.197968 480.651398,262.368469 
	C486.123291,266.596313 488.265564,272.022430 485.913757,278.632690 
	C483.509491,285.390442 477.664551,287.507935 471.259216,287.869568 
	C464.505829,288.250854 457.714233,287.955017 450.138397,287.955017 
	C450.138397,283.972900 450.138397,280.219238 450.143738,275.971283 
M471.435028,265.817963 
	C467.793610,265.635773 464.146393,265.269775 460.514374,265.384705 
	C459.440704,265.418701 457.719666,266.629456 457.464935,267.606049 
	C454.501190,278.969086 458.203308,283.104980 469.635101,281.458679 
	C470.128357,281.387634 470.612122,281.250549 471.105438,281.180145 
	C475.502380,280.552307 478.685303,278.588715 478.984955,273.708405 
	C479.274780,268.988098 476.516022,266.780823 471.435028,265.817963 
M477.227325,251.401352 
	C477.544312,247.373566 475.513184,244.839188 471.710938,244.492065 
	C467.163544,244.076920 462.549316,244.394135 457.657410,244.394135 
	C457.657410,249.180786 457.657410,253.865692 457.657410,258.751160 
	C461.683655,258.751160 465.352966,259.087585 468.930847,258.659576 
	C472.759308,258.201660 476.583679,257.126923 477.227325,251.401352 
z"/>
<path fill="#1B212D" opacity="1.000000" stroke="none" 
	d="
M266.212341,263.586304 
	C259.087982,265.944122 252.069351,267.767365 245.172318,269.971100 
	C238.725769,272.030853 232.401245,274.475067 226.035904,276.785614 
	C220.352005,278.848785 214.874634,277.335052 209.546539,275.573669 
	C202.668182,273.299744 195.920425,270.626007 189.140335,268.061310 
	C184.585037,266.338135 183.020065,267.545898 183.621292,272.410095 
	C184.431671,278.966583 185.214508,285.526459 186.023453,292.524414 
	C184.330719,292.630737 182.623688,292.297577 180.529358,291.812927 
	C179.686920,288.105316 179.231827,284.549103 178.868484,280.617401 
	C178.563354,277.893585 179.023056,274.979187 175.315872,274.337463 
	C175.249939,271.109711 175.065048,268.325256 175.238495,265.563324 
	C175.519730,261.085236 176.036026,256.621887 176.598633,252.157013 
	C176.744186,252.161743 176.931412,251.938583 177.315643,251.960876 
	C180.500061,251.089172 183.300232,250.195175 186.418396,249.286102 
	C187.131851,249.121170 187.527328,248.971329 188.311310,248.855377 
	C195.791443,247.323792 202.883087,245.758301 209.974731,244.192810 
	C203.663025,246.130432 197.347855,248.056839 191.040787,250.009506 
	C186.621796,251.377609 182.213867,252.781509 176.516785,254.573303 
	C182.928497,256.926270 188.121460,258.814972 193.301971,260.737244 
	C200.779099,263.511658 208.179123,266.521118 215.760513,268.970886 
	C218.048676,269.710297 221.026062,269.516083 223.352402,268.741882 
	C237.672348,263.976410 251.896255,258.922394 266.542664,253.948425 
	C266.745880,257.027557 266.558533,260.122650 266.212341,263.586304 
z"/>
<path fill="#E7E8E9" opacity="1.000000" stroke="none" 
	d="
M341.509521,246.827362 
	C336.971893,246.363678 332.699738,245.054306 328.510559,245.280624 
	C326.104980,245.410583 322.677979,247.536102 321.774536,249.646667 
	C320.435394,252.775192 323.243805,254.964172 326.283783,256.239716 
	C330.255890,257.906372 334.238831,259.580719 338.073395,261.533875 
	C343.874481,264.488647 345.759521,269.600220 344.904510,275.745575 
	C344.068390,281.754974 340.566406,286.043884 334.679047,287.275818 
	C330.057892,288.242828 325.126709,288.421082 320.402649,288.054840 
	C311.372253,287.354706 311.134644,286.763855 312.091522,278.052307 
	C317.099518,278.764771 322.091339,279.704315 327.126282,280.112549 
	C330.626373,280.396393 333.918121,279.281525 334.866333,275.319977 
	C335.858215,271.176025 332.985809,269.313202 329.779449,267.892639 
	C325.990662,266.214020 322.098450,264.753357 318.381226,262.932465 
	C312.898743,260.246826 311.091675,255.330063 311.463501,249.654358 
	C311.833618,244.004227 314.910187,240.001022 320.319641,238.120499 
	C327.706390,235.552567 334.984222,236.425858 342.421600,238.934631 
	C342.202026,241.694824 342.005890,244.160141 341.509521,246.827362 
z"/>
<path fill="#E7E8E9" opacity="1.000000" stroke="none" 
	d="
M357.016602,287.899841 
	C355.088043,287.899506 353.607971,287.899506 351.859131,287.899506 
	C351.859131,270.127411 351.859131,252.705353 351.859131,235.042755 
	C354.773987,234.782623 357.532227,234.536469 360.829834,234.242188 
	C360.829834,244.884979 360.829834,255.270279 360.829834,265.655579 
	C361.220398,265.850159 361.610962,266.044739 362.001556,266.239319 
	C364.241516,263.576782 366.865875,261.146118 368.641022,258.203217 
	C372.270813,252.185577 377.157867,249.743561 384.684113,251.836563 
	C380.330353,257.165527 376.026550,262.433350 371.489777,267.986298 
	C376.374878,274.423523 381.167664,280.739136 386.018433,287.131134 
	C377.519165,289.143036 376.048004,288.639404 371.400787,282.336884 
	C369.423645,279.655396 367.485931,276.939423 365.386414,274.356079 
	C364.472046,273.231018 363.195587,272.400330 360.942078,270.445984 
	C360.942078,276.245667 360.781342,280.505707 360.998505,284.746368 
	C361.143585,287.578796 359.902344,288.260468 357.016602,287.899841 
z"/>
<path fill="#4571B4" opacity="1.000000" stroke="none" 
	d="
M570.964844,256.004272 
	C570.962830,266.805389 570.962830,277.107544 570.962830,288.089081 
	C568.899353,287.840149 567.201233,287.624939 565.500366,287.433167 
	C563.971436,287.260773 562.211487,286.540833 560.944275,287.044891 
	C548.486389,292.000244 538.382812,285.955994 537.355774,272.503357 
	C537.095337,269.091888 537.372681,265.443115 538.326416,262.172668 
	C541.026733,252.913086 548.760681,248.744278 558.147827,251.019806 
	C559.588257,251.368973 560.997620,251.846069 563.719849,252.645142 
	C563.719849,249.262924 563.719788,246.423355 563.719788,243.583786 
	C563.719788,240.621414 563.719849,237.659058 563.719849,234.340881 
	C566.207153,234.124191 568.283020,233.943329 570.966797,233.709518 
	C570.966797,241.289810 570.966797,248.397552 570.964844,256.004272 
M563.909180,267.640533 
	C563.805481,264.233002 564.584290,260.615662 560.867554,258.294952 
	C554.693542,254.439911 546.539734,257.586151 545.243164,264.772400 
	C544.638855,268.122192 544.781311,271.757019 545.351013,275.133484 
	C546.238159,280.391968 550.809326,283.280487 556.003784,282.498962 
	C561.343140,281.695679 563.969116,278.558990 563.920715,273.048798 
	C563.907593,271.556671 563.906494,270.064392 563.909180,267.640533 
z"/>
<path fill="#4571B4" opacity="1.000000" stroke="none" 
	d="
M638.736206,288.762299 
	C620.498108,289.325714 611.355286,274.658966 619.589294,258.815430 
	C622.924988,252.397018 629.777222,249.344543 637.813599,250.697037 
	C644.694214,251.855026 649.007751,256.488007 649.961060,263.881622 
	C650.254944,266.161072 650.313354,268.470825 650.541992,271.629150 
	C641.804321,271.629150 633.465820,271.629150 625.143250,271.629150 
	C625.232788,277.698792 628.292114,281.823090 633.607849,282.150482 
	C638.286682,282.438599 643.048035,281.387329 647.987732,280.906677 
	C649.582031,284.624939 648.164734,286.953522 644.089111,287.869110 
	C642.472534,288.232269 640.820374,288.436432 638.736206,288.762299 
M634.470520,265.824677 
	C637.184570,265.824677 639.898621,265.824677 642.633667,265.824677 
	C642.226074,258.667969 639.328186,256.182343 633.072937,256.765625 
	C628.095276,257.229767 625.123352,260.720337 625.687073,265.829376 
	C628.270142,265.829376 630.894043,265.829376 634.470520,265.824677 
z"/>
<path fill="#E0E0E1" opacity="1.000000" stroke="none" 
	d="
M409.385040,246.050262 
	C409.386383,242.115936 409.386383,238.672729 409.386383,235.063782 
	C412.640198,234.786301 415.404266,234.550598 418.879669,234.254227 
	C418.879669,238.407837 418.877350,242.318146 418.880127,246.228455 
	C418.886963,255.862411 418.851227,265.496826 418.949310,275.129883 
	C418.965302,276.701172 419.304596,278.395142 419.973145,279.805511 
	C421.096893,282.176178 422.604858,284.364716 424.090363,286.864075 
	C413.767517,290.256622 409.453705,287.302399 409.373901,277.933807 
	C409.284760,267.470459 409.372772,257.005585 409.385040,246.050262 
z"/>
<path fill="#E7E8E9" opacity="1.000000" stroke="none" 
	d="
M433.015259,287.094574 
	C431.732483,284.511810 429.986450,282.144745 429.944794,279.748077 
	C429.688141,264.979126 429.815979,250.203522 429.815979,235.033188 
	C432.882538,234.838577 435.757935,234.656097 439.083099,234.445084 
	C439.083099,247.639175 439.058350,260.391052 439.101257,273.142700 
	C439.111420,276.167450 438.270538,279.345917 442.354919,281.172119 
	C443.450562,281.662018 443.122711,285.335693 443.603241,288.600250 
	C439.699463,288.104370 436.519592,287.700470 433.015259,287.094574 
z"/>
<path fill="#4571B4" opacity="1.000000" stroke="none" 
	d="
M501.264709,275.984131 
	C501.266541,280.118713 501.266541,283.762970 501.266541,287.813049 
	C498.897766,287.813049 496.848511,287.813049 494.056366,287.813049 
	C494.056366,281.683624 494.061157,275.598328 494.054810,269.513062 
	C494.049774,264.685272 493.952209,259.855469 494.075195,255.031143 
	C494.105133,253.856705 494.662781,251.839050 495.287231,251.710327 
	C496.696198,251.419891 498.291412,252.123856 499.824158,252.317825 
	C501.337372,252.509323 502.936890,252.907700 504.372772,252.609558 
	C506.430786,252.182251 508.322418,250.806671 510.377014,250.537277 
	C516.509399,249.733231 517.423767,250.965500 515.522217,257.284912 
	C514.192139,257.284912 512.746033,257.245239 511.302704,257.291870 
	C505.599274,257.476227 501.617188,261.301331 501.324921,267.004639 
	C501.180206,269.828003 501.275909,272.663696 501.264709,275.984131 
z"/>
<path fill="#E7E8E9" opacity="1.000000" stroke="none" 
	d="
M400.356079,255.392853 
	C400.353821,266.319427 400.353821,276.788666 400.353821,287.574402 
	C397.317596,287.574402 394.568756,287.574402 391.410522,287.574402 
	C391.410522,275.854431 391.410522,263.965393 391.410522,251.646179 
	C393.947845,251.646179 396.679352,251.646179 399.926270,251.646179 
	C400.038727,252.502228 400.198517,253.718857 400.356079,255.392853 
z"/>
<path fill="#4571B4" opacity="1.000000" stroke="none" 
	d="
M522.388672,252.676666 
	C524.487793,251.816437 526.473572,251.373489 529.170715,250.771866 
	C529.313293,253.248169 529.494690,254.987625 529.499817,256.727600 
	C529.525452,265.380127 529.556519,274.033295 529.482544,282.685303 
	C529.430115,288.821289 528.928955,289.121918 522.275391,287.305084 
	C522.275391,275.992004 522.275391,264.542969 522.388672,252.676666 
z"/>
<path fill="#D7A238" opacity="1.000000" stroke="none" 
	d="
M178.776718,280.992920 
	C179.231827,284.549103 179.686920,288.105316 180.291077,292.035461 
	C180.456879,293.072205 180.439575,293.737915 180.495514,294.397369 
	C181.346664,304.432709 181.348907,304.432556 171.468033,304.179535 
	C164.903549,304.011475 164.708069,303.759094 165.255844,295.680481 
	C165.705460,296.986847 165.848953,298.378693 165.985138,299.699677 
	C168.407272,299.467896 170.526352,299.322174 172.627609,299.042572 
	C173.888153,298.874847 176.159607,298.609528 176.203812,298.197754 
	C176.601852,294.489716 177.100952,290.645660 176.419937,287.060028 
	C176.221069,286.012878 172.369354,285.317474 170.125397,285.073822 
	C165.793579,284.603424 166.892273,288.785309 165.580032,290.915710 
	C166.230377,287.848999 166.880737,284.782288 167.622971,281.309692 
	C167.714844,280.903778 167.985123,281.029816 168.057465,281.100677 
	C168.129822,281.171539 168.356979,281.171326 168.356979,281.171326 
	C168.356979,281.171326 168.018295,280.991974 168.099548,280.656067 
	C171.712784,280.544434 175.244751,280.768677 178.776718,280.992920 
z"/>
<path fill="#EFBF50" opacity="1.000000" stroke="none" 
	d="
M187.922791,248.821472 
	C187.527328,248.971329 187.131851,249.121170 186.205643,248.985367 
	C182.252762,248.408905 178.882767,248.258896 176.931412,251.938583 
	C176.931412,251.938583 176.744186,252.161743 176.177582,252.114960 
	C174.456833,253.572159 172.591660,254.951111 172.300522,256.606842 
	C171.740677,259.790771 172.249130,263.147308 171.957993,266.400299 
	C171.817078,267.974579 170.869186,269.476593 170.286667,271.011322 
	C170.195709,264.976898 170.104752,258.942474 169.947098,252.438553 
	C171.781982,250.523315 173.476944,248.386688 175.619308,247.745880 
	C187.957291,244.055466 200.361328,240.561752 212.844025,237.400406 
	C215.229736,236.796188 218.067123,237.975449 220.384918,238.663239 
	C219.583466,238.925507 219.053986,238.699188 218.608749,238.810349 
	C208.604874,241.308167 198.603409,243.817245 188.637817,246.461151 
	C188.220139,246.571976 188.153152,248.004623 187.922791,248.821472 
z"/>
<path fill="#EFBF50" opacity="1.000000" stroke="none" 
	d="
M165.448425,291.316223 
	C166.892273,288.785309 165.793579,284.603424 170.125397,285.073822 
	C172.369354,285.317474 176.221069,286.012878 176.419937,287.060028 
	C177.100952,290.645660 176.601852,294.489716 176.203812,298.197754 
	C176.159607,298.609528 173.888153,298.874847 172.627609,299.042572 
	C170.526352,299.322174 168.407272,299.467896 165.985138,299.699677 
	C165.848953,298.378693 165.705460,296.986847 165.366180,295.338196 
	C165.219208,293.959808 165.268021,292.838257 165.448425,291.316223 
z"/>
<path fill="#E0E0E1" opacity="1.000000" stroke="none" 
	d="
M398.068848,244.907227 
	C395.430573,244.305588 392.769806,244.028946 391.010132,242.623856 
	C390.193848,241.972076 390.438812,238.337112 391.437439,237.459412 
	C392.887024,236.185364 395.607849,235.414337 397.514130,235.794571 
	C401.829742,236.655350 402.148254,241.049789 398.068848,244.907227 
z"/>
<path fill="#4571B4" opacity="1.000000" stroke="none" 
	d="
M525.259766,235.834351 
	C529.302307,236.158798 531.346069,238.411987 530.016052,241.772400 
	C529.429138,243.255264 526.324341,244.130569 524.239502,244.433197 
	C523.445679,244.548431 521.289246,241.989197 521.529053,241.165894 
	C522.089661,239.240997 523.724854,237.629074 525.259766,235.834351 
z"/>
<path fill="#D7A238" opacity="1.000000" stroke="none" 
	d="
M170.188324,271.430115 
	C170.869186,269.476593 171.817078,267.974579 171.957993,266.400299 
	C172.249130,263.147308 171.740677,259.790771 172.300522,256.606842 
	C172.591660,254.951111 174.456833,253.572159 176.032013,252.110245 
	C176.036026,256.621887 175.519730,261.085236 175.238495,265.563324 
	C175.065048,268.325256 175.249939,271.109711 174.930298,274.393372 
	C173.110016,274.744568 171.633347,274.586395 170.156693,274.428192 
	C170.134460,273.568420 170.112228,272.708679 170.188324,271.430115 
z"/>
<path fill="#EFBF50" opacity="1.000000" stroke="none" 
	d="
M169.844971,274.546143 
	C171.633347,274.586395 173.110016,274.744568 174.972229,274.846802 
	C179.023056,274.979187 178.563354,277.893585 178.868484,280.617401 
	C175.244751,280.768677 171.712784,280.544434 168.088974,280.663574 
	C167.997131,281.006958 167.985123,281.029816 167.985123,281.029816 
	C167.985123,281.029816 167.714844,280.903778 167.565674,280.903931 
	C166.512680,278.278107 165.704315,275.684540 169.844971,274.546143 
z"/>
<path fill="#D7A238" opacity="1.000000" stroke="none" 
	d="
M188.311295,248.855377 
	C188.153152,248.004623 188.220139,246.571976 188.637817,246.461151 
	C198.603409,243.817245 208.604874,241.308167 218.608749,238.810349 
	C219.053986,238.699188 219.583466,238.925507 220.410080,239.028992 
	C217.376831,240.632355 214.007202,242.201324 210.306152,243.981552 
	C202.883087,245.758301 195.791443,247.323792 188.311295,248.855377 
z"/>
<path fill="#0C1221" opacity="1.000000" stroke="none" 
	d="
M594.562988,288.604553 
	C597.138550,288.703339 599.400513,288.409790 601.396301,289.006348 
	C603.038818,289.497314 605.281677,290.836426 605.585999,292.178833 
	C605.918579,293.645660 604.799377,296.362610 603.493347,297.118317 
	C598.215027,300.172852 592.434875,300.224426 586.839172,297.950348 
	C585.649231,297.466766 584.154663,295.220947 584.419983,294.213470 
	C584.909607,292.354065 586.260315,290.195251 587.880737,289.304321 
	C589.580933,288.369598 592.018799,288.776642 594.562988,288.604553 
z"/>
<path fill="#0C1221" opacity="1.000000" stroke="none" 
	d="
M593.253174,270.945984 
	C587.375366,269.270020 585.426208,266.558441 586.543091,262.141388 
	C587.661499,257.718445 591.385681,255.426376 596.023438,256.306763 
	C600.422424,257.141815 602.777466,260.468353 602.051575,265.055023 
	C601.294434,269.839966 597.833740,270.956665 593.253174,270.945984 
z"/>
<path fill="#0C1221" opacity="1.000000" stroke="none" 
	d="
M471.846954,265.873322 
	C476.516022,266.780823 479.274780,268.988098 478.984955,273.708405 
	C478.685303,278.588715 475.502380,280.552307 471.105438,281.180145 
	C470.612122,281.250549 470.128357,281.387634 469.635101,281.458679 
	C458.203308,283.104980 454.501190,278.969086 457.464935,267.606049 
	C457.719666,266.629456 459.440704,265.418701 460.514374,265.384705 
	C464.146393,265.269775 467.793610,265.635773 471.846954,265.873322 
z"/>
<path fill="#0C1221" opacity="1.000000" stroke="none" 
	d="
M477.199493,251.817139 
	C476.583679,257.126923 472.759308,258.201660 468.930847,258.659576 
	C465.352966,259.087585 461.683655,258.751160 457.657410,258.751160 
	C457.657410,253.865692 457.657410,249.180786 457.657410,244.394135 
	C462.549316,244.394135 467.163544,244.076920 471.710938,244.492065 
	C475.513184,244.839188 477.544312,247.373566 477.199493,251.817139 
z"/>
<path fill="#D7A238" opacity="1.000000" stroke="none" 
	d="
M177.315643,251.960876 
	C178.882767,248.258896 182.252762,248.408905 185.887665,249.000458 
	C183.300232,250.195175 180.500061,251.089172 177.315643,251.960876 
z"/>
<path fill="#0C1221" opacity="1.000000" stroke="none" 
	d="
M563.904541,268.106384 
	C563.906494,270.064392 563.907593,271.556671 563.920715,273.048798 
	C563.969116,278.558990 561.343140,281.695679 556.003784,282.498962 
	C550.809326,283.280487 546.238159,280.391968 545.351013,275.133484 
	C544.781311,271.757019 544.638855,268.122192 545.243164,264.772400 
	C546.539734,257.586151 554.693542,254.439911 560.867554,258.294952 
	C564.584290,260.615662 563.805481,264.233002 563.904541,268.106384 
z"/>
<path fill="#0C1221" opacity="1.000000" stroke="none" 
	d="
M633.994263,265.827026 
	C630.894043,265.829376 628.270142,265.829376 625.687073,265.829376 
	C625.123352,260.720337 628.095276,257.229767 633.072937,256.765625 
	C639.328186,256.182343 642.226074,258.667969 642.633667,265.824677 
	C639.898621,265.824677 637.184570,265.824677 633.994263,265.827026 
z"/>
<path fill="#EFBF50" opacity="1.000000" stroke="none" 
	d="
M168.007721,280.999451 
	C168.018295,280.991974 168.356979,281.171326 168.356979,281.171326 
	C168.356979,281.171326 168.129822,281.171539 168.057465,281.100677 
	C167.985123,281.029816 167.997131,281.006958 168.007721,280.999451 
z"/>
</svg>